<svg width="180" height="37" viewBox="0 0 180 37" fill="none" xmlns="http://www.w3.org/2000/svg">
<path d="M16.4727 31L6.23828 8.71484V26.4102C6.23828 28.0378 6.41406 29.0534 6.76562 29.457C7.2474 30.0039 8.00911 30.2773 9.05078 30.2773H9.98828V31H0.769531V30.2773H1.70703C2.82682 30.2773 3.62109 29.9388 4.08984 29.2617C4.3763 28.8451 4.51953 27.8945 4.51953 26.4102V9.10547C4.51953 7.93359 4.38932 7.08724 4.12891 6.56641C3.94661 6.1888 3.60807 5.8763 3.11328 5.62891C2.63151 5.36849 1.85026 5.23828 0.769531 5.23828V4.51562H8.26953L17.8789 25.2383L27.332 4.51562H34.832V5.23828H33.9141C32.7812 5.23828 31.9805 5.57682 31.5117 6.25391C31.2253 6.67057 31.082 7.62109 31.082 9.10547V26.4102C31.082 28.0378 31.2643 29.0534 31.6289 29.457C32.1107 30.0039 32.8724 30.2773 33.9141 30.2773H34.832V31H23.582V30.2773H24.5195C25.6523 30.2773 26.4466 29.9388 26.9023 29.2617C27.1888 28.8451 27.332 27.8945 27.332 26.4102V8.71484L17.1172 31H16.4727ZM55.9922 22.1328H45.7383L43.9414 26.3125C43.4987 27.3411 43.2773 28.1094 43.2773 28.6172C43.2773 29.0208 43.4661 29.3789 43.8438 29.6914C44.2344 29.9909 45.0677 30.1862 46.3438 30.2773V31H38.0039V30.2773C39.1107 30.082 39.8268 29.8281 40.1523 29.5156C40.8164 28.8906 41.5521 27.6211 42.3594 25.707L51.6758 3.91016H52.3594L61.5781 25.9414C62.3203 27.7122 62.9909 28.8646 63.5898 29.3984C64.2018 29.9193 65.0482 30.2122 66.1289 30.2773V31H55.6797V30.2773C56.7344 30.2253 57.444 30.0495 57.8086 29.75C58.1862 29.4505 58.375 29.0859 58.375 28.6562C58.375 28.0833 58.1146 27.1784 57.5938 25.9414L55.9922 22.1328ZM55.4453 20.6875L50.9531 9.98438L46.3438 20.6875H55.4453ZM95.6289 31H88.5586L79.5938 18.6172C78.9297 18.6432 78.3893 18.6562 77.9727 18.6562C77.8034 18.6562 77.6211 18.6562 77.4258 18.6562C77.2305 18.6432 77.0286 18.6302 76.8203 18.6172V26.3125C76.8203 27.9792 77.0026 29.0143 77.3672 29.418C77.862 29.9909 78.6042 30.2773 79.5938 30.2773H80.6289V31H69.2812V30.2773H70.2773C71.3971 30.2773 72.1979 29.9128 72.6797 29.1836C72.9531 28.7799 73.0898 27.8229 73.0898 26.3125V9.20312C73.0898 7.53646 72.9076 6.5013 72.543 6.09766C72.0352 5.52474 71.2799 5.23828 70.2773 5.23828H69.2812V4.51562H78.9297C81.7422 4.51562 83.8125 4.72396 85.1406 5.14062C86.4818 5.54427 87.6146 6.29948 88.5391 7.40625C89.4766 8.5 89.9453 9.80859 89.9453 11.332C89.9453 12.9596 89.4115 14.3724 88.3438 15.5703C87.2891 16.7682 85.6484 17.6146 83.4219 18.1094L88.8906 25.707C90.1406 27.4518 91.2148 28.6107 92.1133 29.1836C93.0117 29.7565 94.1836 30.1211 95.6289 30.2773V31ZM76.8203 17.3867C77.0677 17.3867 77.2826 17.3932 77.4648 17.4062C77.6471 17.4062 77.7969 17.4062 77.9141 17.4062C80.4401 17.4062 82.3411 16.8594 83.6172 15.7656C84.9062 14.6719 85.5508 13.2786 85.5508 11.5859C85.5508 9.93229 85.0299 8.59115 83.9883 7.5625C82.9596 6.52083 81.5924 6 79.8867 6C79.1315 6 78.1094 6.1237 76.8203 6.37109V17.3867ZM118 4.51562L118.293 10.7266H117.551C117.408 9.63281 117.212 8.85156 116.965 8.38281C116.561 7.6276 116.021 7.07422 115.344 6.72266C114.68 6.35807 113.801 6.17578 112.707 6.17578H108.977V26.4102C108.977 28.0378 109.152 29.0534 109.504 29.457C109.999 30.0039 110.76 30.2773 111.789 30.2773H112.707V31H101.477V30.2773H102.414C103.534 30.2773 104.328 29.9388 104.797 29.2617C105.083 28.8451 105.227 27.8945 105.227 26.4102V6.17578H102.043C100.806 6.17578 99.9271 6.26693 99.4062 6.44922C98.7292 6.69661 98.1497 7.17188 97.668 7.875C97.1862 8.57812 96.8997 9.52865 96.8086 10.7266H96.0664L96.3789 4.51562H118ZM140.371 4.51562H149.609V5.23828H149.102C148.763 5.23828 148.268 5.38802 147.617 5.6875C146.966 5.98698 146.374 6.41667 145.84 6.97656C145.306 7.53646 144.648 8.44792 143.867 9.71094L137.48 19.7695V26.4102C137.48 28.0378 137.663 29.0534 138.027 29.457C138.522 30.0039 139.303 30.2773 140.371 30.2773H141.23V31H129.98V30.2773H130.918C132.038 30.2773 132.832 29.9388 133.301 29.2617C133.587 28.8451 133.73 27.8945 133.73 26.4102V20.1406L126.465 9.04688C125.605 7.74479 125.02 6.93099 124.707 6.60547C124.408 6.27995 123.776 5.88932 122.812 5.43359C122.552 5.30339 122.174 5.23828 121.68 5.23828V4.51562H133.008V5.23828H132.422C131.81 5.23828 131.243 5.38151 130.723 5.66797C130.215 5.95443 129.961 6.38411 129.961 6.95703C129.961 7.42578 130.358 8.27214 131.152 9.49609L136.68 18.0312L141.875 9.86719C142.656 8.64323 143.047 7.73177 143.047 7.13281C143.047 6.76823 142.949 6.44271 142.754 6.15625C142.572 5.86979 142.305 5.64844 141.953 5.49219C141.602 5.32292 141.074 5.23828 140.371 5.23828V4.51562ZM179.246 31H172.176L163.211 18.6172C162.547 18.6432 162.007 18.6562 161.59 18.6562C161.421 18.6562 161.238 18.6562 161.043 18.6562C160.848 18.6432 160.646 18.6302 160.438 18.6172V26.3125C160.438 27.9792 160.62 29.0143 160.984 29.418C161.479 29.9909 162.221 30.2773 163.211 30.2773H164.246V31H152.898V30.2773H153.895C155.014 30.2773 155.815 29.9128 156.297 29.1836C156.57 28.7799 156.707 27.8229 156.707 26.3125V9.20312C156.707 7.53646 156.525 6.5013 156.16 6.09766C155.652 5.52474 154.897 5.23828 153.895 5.23828H152.898V4.51562H162.547C165.359 4.51562 167.43 4.72396 168.758 5.14062C170.099 5.54427 171.232 6.29948 172.156 7.40625C173.094 8.5 173.562 9.80859 173.562 11.332C173.562 12.9596 173.029 14.3724 171.961 15.5703C170.906 16.7682 169.266 17.6146 167.039 18.1094L172.508 25.707C173.758 27.4518 174.832 28.6107 175.73 29.1836C176.629 29.7565 177.801 30.1211 179.246 30.2773V31ZM160.438 17.3867C160.685 17.3867 160.9 17.3932 161.082 17.4062C161.264 17.4062 161.414 17.4062 161.531 17.4062C164.057 17.4062 165.958 16.8594 167.234 15.7656C168.523 14.6719 169.168 13.2786 169.168 11.5859C169.168 9.93229 168.647 8.59115 167.605 7.5625C166.577 6.52083 165.21 6 163.504 6C162.749 6 161.727 6.1237 160.438 6.37109V17.3867Z" fill="black"/>
</svg>
